<?xml version="1.0" encoding="UTF-8"?>
<svg version="1.1" xmlns="http://www.w3.org/2000/svg" width="3240" height="3240">
<path d="M0 0 C1069.2 0 2138.4 0 3240 0 C3240 1069.2 3240 2138.4 3240 3240 C2170.8 3240 1101.6 3240 0 3240 C0 2170.8 0 1101.6 0 0 Z " fill="#EF693C" transform="translate(0,0)"/>
<path d="M0 0 C0.70811829 0.08721313 1.41623657 0.17442627 2.14581299 0.26428223 C12.42790722 1.53347957 22.66942702 3.00996985 32.89697266 4.6607666 C34.96592275 4.9945031 37.03565692 5.32302404 39.10546875 5.65136719 C62.10356901 9.3349168 84.54287324 14.8645265 107 21 C108.02335449 21.27811523 109.04670898 21.55623047 110.10107422 21.84277344 C115.78653801 23.41006522 121.39879021 25.15552457 127 27 C128.23540527 27.40412109 129.47081055 27.80824219 130.74365234 28.22460938 C209.38189992 54.05554506 283.58591086 93.53128819 347 147 C348.49273438 148.25103516 348.49273438 148.25103516 350.015625 149.52734375 C360.2266178 158.10893938 370.38285346 166.77418049 380.25 175.75 C383.54292966 178.73863253 386.91316769 181.58383605 390.375 184.375 C394.92860712 188.05636689 399.23582516 191.92774473 403.51904297 195.91357422 C406.75176204 198.90412641 410.06687666 201.73771685 413.5 204.5 C418.01777813 208.13499389 422.27818516 211.9671029 426.51953125 215.9140625 C429.75211747 218.90441358 433.06705866 221.73786329 436.5 224.5 C441.01777813 228.13499389 445.27818516 231.9671029 449.51953125 235.9140625 C452.75211747 238.90441358 456.06705866 241.73786329 459.5 244.5 C464.01858176 248.1356405 468.27983329 251.96836402 472.52172852 255.91625977 C475.7329905 258.88715628 479.02627815 261.69961077 482.4375 264.4375 C487.21541338 268.28045479 491.68994984 272.36831329 496.16162109 276.55615234 C500.37429105 280.47906854 504.76413555 284.11911024 509.25390625 287.72265625 C512.26319052 290.21826469 515.13938654 292.83765143 518 295.5 C521.73327255 298.97419243 525.52371111 302.3006871 529.5 305.5 C534.01777813 309.13499389 538.27818516 312.9671029 542.51953125 316.9140625 C545.75211747 319.90441358 549.06705866 322.73786329 552.5 325.5 C557.01777813 329.13499389 561.27818516 332.9671029 565.51953125 336.9140625 C568.75211747 339.90441358 572.06705866 342.73786329 575.5 345.5 C580.01777813 349.13499389 584.27818516 352.9671029 588.51953125 356.9140625 C591.75211747 359.90441358 595.06705866 362.73786329 598.5 365.5 C603.01777813 369.13499389 607.27818516 372.9671029 611.51953125 376.9140625 C614.75211747 379.90441358 618.06705866 382.73786329 621.5 385.5 C626.01858176 389.1356405 630.27983329 392.96836402 634.52172852 396.91625977 C637.7329905 399.88715628 641.02627815 402.69961077 644.4375 405.4375 C649.21541338 409.28045479 653.68994984 413.36831329 658.16162109 417.55615234 C662.37429105 421.47906854 666.76413555 425.11911024 671.25390625 428.72265625 C674.26319052 431.21826469 677.13938654 433.83765143 680 436.5 C683.73327255 439.97419243 687.52371111 443.3006871 691.5 446.5 C696.00951802 450.12834783 700.26548216 453.95031324 704.49536133 457.89428711 C708.80613476 461.88783274 713.30835297 465.57585006 717.91796875 469.22265625 C720 471 720 471 721 473 C666.16006182 473.18831813 611.32009302 473.36344283 556.47991943 473.46577454 C555.66815756 473.46729316 554.85639568 473.46881179 554.02003496 473.47037644 C536.37789864 473.50329908 518.73575888 473.53377099 501.093614 473.56171862 C492.4418031 473.57543922 483.78999314 473.58970133 475.13818359 473.60424805 C474.27722847 473.6056864 473.41627334 473.60712475 472.52922867 473.60860668 C444.62743075 473.65547443 416.72587802 473.73809329 388.82422862 473.83926943 C360.1495854 473.94305962 331.47507784 474.01074714 302.80024996 474.03306489 C298.74934791 474.03623455 294.69844633 474.03981656 290.64754486 474.04364967 C289.45164173 474.04476215 289.45164173 474.04476215 288.23157895 474.04589711 C275.40205473 474.05889179 262.57295021 474.10989831 249.74359709 474.17515237 C236.84299417 474.23995645 223.94280695 474.26463701 211.04204699 474.24851515 C203.37881287 474.24015379 195.71710123 474.2624012 188.0541423 474.32877297 C182.32832194 474.37497391 176.60376191 474.36352638 170.87790737 474.32988784 C168.56407418 474.32524133 166.25011239 474.33918747 163.93653217 474.37371501 C144.84789552 474.64200179 144.84789552 474.64200179 138.30816983 469.13252838 C136.02146229 466.89710633 134.00060332 464.49163665 132 462 C130.8374859 460.88238249 129.65512449 459.7844453 128.44140625 458.72265625 C127.49136719 457.84480469 126.54132812 456.96695312 125.5625 456.0625 C124.46746751 455.05076005 123.37241484 454.03904193 122.27734375 453.02734375 C121.7344873 452.5257373 121.19163086 452.02413086 120.63232422 451.50732422 C119.02804639 450.02589866 117.42245634 448.54591008 115.81640625 447.06640625 C110.00420142 441.71047999 104.21092348 436.33522536 98.4375 430.9375 C92.97254144 425.82889126 87.47800817 420.75499275 81.95703125 415.70703125 C77.16862506 411.32791788 72.40702925 406.91966677 67.64111328 402.51611328 C64.92822414 400.00985896 62.21405141 397.50499554 59.5 395 C58.41666043 394.00000676 57.33332709 393.00000676 56.25 392 C55.445625 391.2575 55.445625 391.2575 54.625 390.5 C53 389 51.375 387.5 49.75 386 C49.21391113 385.50516113 48.67782227 385.01032227 48.12548828 384.50048828 C47.04047744 383.49891474 45.95551662 382.497287 44.87060547 381.49560547 C42.18834243 379.01923728 39.50526066 376.54376936 36.8203125 374.0703125 C31.00699959 368.71287587 25.21226679 363.33648126 19.4375 357.9375 C13.97254144 352.82889126 8.47800817 347.75499275 2.95703125 342.70703125 C-1.83137494 338.32791788 -6.59297075 333.91966677 -11.35888672 329.51611328 C-13.53090442 327.50953341 -15.70376073 325.50386308 -17.87670898 323.49829102 C-18.96093108 322.49755842 -20.04507794 321.49674431 -21.12915039 320.49584961 C-23.81148255 318.01938674 -26.49465476 315.54384728 -29.1796875 313.0703125 C-34.99300195 307.71287445 -40.78754169 302.33627782 -46.5625 296.9375 C-51.23770283 292.56997119 -55.91815565 288.20843815 -60.625 283.875 C-62.00558594 282.60269531 -62.00558594 282.60269531 -63.4140625 281.3046875 C-65.87772065 279.10898009 -68.40261835 277.03477191 -71 275 C-75.336932 276.39428897 -77.6973368 278.40122929 -80.8125 281.6875 C-84.35858467 285.40712878 -88.0410759 288.82354279 -91.9230957 292.18139648 C-95.25635639 295.10010565 -98.4678744 298.14466653 -101.6875 301.1875 C-103.0933817 302.51080806 -104.49963661 303.83371972 -105.90625 305.15625 C-106.5971875 305.8059375 -107.288125 306.455625 -108 307.125 C-112.44783776 311.2948479 -116.93716997 315.41983409 -121.42333984 319.54833984 C-124.11810946 322.02946406 -126.80881314 324.51499116 -129.5 327 C-130.58331462 328.00002027 -131.66664794 329.00002029 -132.75 330 C-133.28625 330.495 -133.8225 330.99 -134.375 331.5 C-152.25 348 -152.25 348 -153.87451172 349.49951172 C-154.95952256 350.50108526 -156.04448338 351.502713 -157.12939453 352.50439453 C-159.81165757 354.98076272 -162.49473934 357.45623064 -165.1796875 359.9296875 C-170.99300041 365.28712413 -176.78773321 370.66351874 -182.5625 376.0625 C-188.02745856 381.17110874 -193.52199183 386.24500725 -199.04296875 391.29296875 C-202.18333159 394.16490659 -205.31138814 397.05006534 -208.4375 399.9375 C-208.97777832 400.43652832 -209.51805664 400.93555664 -210.07470703 401.44970703 C-211.16948306 402.46104672 -212.2642095 403.47244008 -213.35888672 404.48388672 C-216.07177586 406.99014104 -218.78594859 409.49500446 -221.5 412 C-222.58333957 412.99999324 -223.66667291 413.99999324 -224.75 415 C-231.25 421 -231.25 421 -232.87451172 422.49951172 C-233.95952256 423.50108526 -235.04448338 424.502713 -236.12939453 425.50439453 C-238.81165757 427.98076272 -241.49473934 430.45623064 -244.1796875 432.9296875 C-249.99300157 438.2871252 -255.7875896 443.66367128 -261.5625 449.0625 C-266.19436078 453.39024271 -270.83312668 457.71000605 -275.5 462 C-276.3971875 462.825 -277.294375 463.65 -278.21875 464.5 C-279.1365625 465.325 -280.054375 466.15 -281 467 C-281.48040553 467.50512612 -281.96081106 468.01025225 -282.45577434 468.53068522 C-286.51347748 472.5336516 -289.45286068 473.69533527 -295.12310848 473.78605086 C-296.0304267 473.77028877 -296.93774492 473.75452669 -297.87255764 473.73828697 C-298.85482617 473.74521004 -299.83709469 473.7521331 -300.84912893 473.75926596 C-304.14900935 473.77518016 -307.4471421 473.74820735 -310.74693298 473.7215271 C-313.13298837 473.72414306 -315.51904208 473.72939563 -317.90508658 473.7370621 C-323.09688581 473.74769157 -328.28831278 473.73966444 -333.48005104 473.71523285 C-341.19990334 473.67900529 -348.91949558 473.67721954 -356.63941739 473.68248478 C-369.62574307 473.69036666 -382.61188552 473.67032571 -395.59815788 473.63438034 C-408.45650069 473.59888029 -421.31476719 473.57578511 -434.17315865 473.56926346 C-434.97259956 473.56885102 -435.77204047 473.56843858 -436.59570687 473.56801365 C-440.65565001 473.56598365 -444.71559321 473.56417535 -448.77553649 473.56245239 C-477.53343369 473.54984933 -506.29123121 473.50942358 -535.04907227 473.45263672 C-562.98721791 473.39753215 -590.92533629 473.35502949 -618.86352539 473.32958984 C-620.15524976 473.32840611 -620.15524976 473.32840611 -621.47306957 473.32719846 C-630.12107378 473.31928735 -638.76907821 473.31163247 -647.41708282 473.3041653 C-665.03412458 473.28894795 -682.65116456 473.27202044 -700.26820374 473.25405884 C-701.48321285 473.25282323 -701.48321285 473.25282323 -702.72276761 473.25156266 C-756.81522027 473.19635703 -810.90761616 473.10116086 -865 473 C-856.63369519 464.6206147 -847.98348939 456.69139279 -838.74609375 449.27734375 C-835.73680948 446.78173531 -832.86061346 444.16234857 -830 441.5 C-825.41242561 437.23079221 -820.66556996 433.24241261 -815.78125 429.3125 C-812.75980812 426.8002899 -809.87558227 424.17599173 -807 421.5 C-802.41239887 417.23081848 -797.66557272 413.24241483 -792.78125 409.3125 C-789.75980812 406.8002899 -786.87558227 404.17599173 -784 401.5 C-779.41239887 397.23081848 -774.66557272 393.24241483 -769.78125 389.3125 C-766.22814914 386.35823636 -762.8597632 383.23086576 -759.47827148 380.08374023 C-756.2670095 377.11284372 -752.97372185 374.30038923 -749.5625 371.5625 C-745.37762693 368.19653735 -741.41685602 364.66823983 -737.5 361 C-732.73908666 356.54127805 -727.83532437 352.36202376 -722.74609375 348.27734375 C-719.73680948 345.78173531 -716.86061346 343.16234857 -714 340.5 C-709.41242561 336.23079221 -704.66556996 332.24241261 -699.78125 328.3125 C-696.75980812 325.8002899 -693.87558227 323.17599173 -691 320.5 C-686.41239887 316.23081848 -681.66557272 312.24241483 -676.78125 308.3125 C-673.75980812 305.8002899 -670.87558227 303.17599173 -668 300.5 C-663.41239887 296.23081848 -658.66557272 292.24241483 -653.78125 288.3125 C-650.75980812 285.8002899 -647.87558227 283.17599173 -645 280.5 C-640.41239887 276.23081848 -635.66557272 272.24241483 -630.78125 268.3125 C-627.75980812 265.8002899 -624.87558227 263.17599173 -622 260.5 C-617.41239887 256.23081848 -612.66557272 252.24241483 -607.78125 248.3125 C-604.22814914 245.35823636 -600.8597632 242.23086576 -597.47827148 239.08374023 C-594.2670095 236.11284372 -590.97372185 233.30038923 -587.5625 230.5625 C-583.37762693 227.19653735 -579.41685602 223.66823983 -575.5 220 C-570.73908666 215.54127805 -565.83532437 211.36202376 -560.74609375 207.27734375 C-557.73680948 204.78173531 -554.86061346 202.16234857 -552 199.5 C-547.41242561 195.23079221 -542.66556996 191.24241261 -537.78125 187.3125 C-534.75980812 184.8002899 -531.87558227 182.17599173 -529 179.5 C-524.41239887 175.23081848 -519.66557272 171.24241483 -514.78125 167.3125 C-511.7597704 164.80025854 -508.87601475 162.17556664 -506 159.5 C-500.52232068 154.4166505 -494.83431641 149.66745313 -489 145 C-487.88094186 144.08923981 -486.76248112 143.17774524 -485.64453125 142.265625 C-475.67853715 134.16808494 -465.41344726 126.51096701 -455 119 C-454.20464844 118.42491699 -453.40929688 117.84983398 -452.58984375 117.25732422 C-370.0724502 57.83473777 -271.96450771 18.75411378 -146.18432617 0.25 C-144.09491711 0.01086343 -142.00742059 -0.24088469 -139.91992188 -0.49609375 C-94.44620958 -5.95813753 -45.42594885 -5.73195511 0 0 Z " fill="#FEF3F2" transform="translate(1692,809)"/>
<path d="M0 0 C54.89643756 -0.13692876 109.79289129 -0.26429605 164.68945312 -0.33874512 C165.90792428 -0.3404018 165.90792428 -0.3404018 167.15101102 -0.34209196 C184.80422101 -0.36603448 202.45743281 -0.38819604 220.11064732 -0.40852264 C228.76761294 -0.41850144 237.42457807 -0.42887386 246.08154297 -0.43945312 C247.37376021 -0.44102223 247.37376021 -0.44102223 248.69208285 -0.44262304 C276.62177791 -0.47672193 304.5513436 -0.53681836 332.48096026 -0.61037777 C361.17910155 -0.6858241 389.87717122 -0.73508017 418.57541 -0.75131992 C422.62759489 -0.7536252 426.67977953 -0.7562303 430.73196411 -0.75901794 C431.92827178 -0.75982702 431.92827178 -0.75982702 433.14874727 -0.76065244 C445.9938457 -0.77011111 458.83872288 -0.80722858 471.68373104 -0.85465627 C484.59318579 -0.90173286 497.50242092 -0.91974932 510.41195852 -0.90801102 C518.08463756 -0.90192012 525.75651363 -0.91820139 533.42904787 -0.96638034 C539.15481184 -0.99988239 544.8799067 -0.99170761 550.60568821 -0.96719116 C552.92481419 -0.96380167 555.24400722 -0.97403162 557.56300056 -0.99906546 C560.7114706 -1.03108442 563.85598762 -1.0139347 567.00439453 -0.98438263 C567.90908574 -1.00539874 568.81377695 -1.02641485 569.74588305 -1.04806781 C575.03400684 -0.93556489 577.59201494 0.06230098 581.37350464 3.83960009 C582.5847304 5.22430966 583.79361524 6.61107082 585 8 C586.32025864 9.20540141 587.65777786 10.39246214 589.01953125 11.55078125 C593.01261049 14.99080782 596.8574571 18.5677677 600.6875 22.1875 C602.0933817 23.51080806 603.49963661 24.83371972 604.90625 26.15625 C605.5971875 26.8059375 606.288125 27.455625 607 28.125 C611.44783776 32.2948479 615.93716997 36.41983409 620.42333984 40.54833984 C623.11810946 43.02946406 625.80881314 45.51499116 628.5 48 C629.58331462 49.00002027 630.66664794 50.00002029 631.75 51 C642.58333333 61 653.41666667 71 664.25 81 C664.78608887 81.49483887 665.32217773 81.98967773 665.87451172 82.49951172 C666.95952256 83.50108526 668.04448338 84.502713 669.12939453 85.50439453 C671.81165757 87.98076272 674.49473934 90.45623064 677.1796875 92.9296875 C682.99300041 98.28712413 688.78773321 103.66351874 694.5625 109.0625 C700.02745856 114.17110874 705.52199183 119.24500725 711.04296875 124.29296875 C715.83137494 128.67208212 720.59297075 133.08033323 725.35888672 137.48388672 C727.53090442 139.49046659 729.70376073 141.49613692 731.87670898 143.50170898 C732.96093108 144.50244158 734.04507794 145.50325569 735.12915039 146.50415039 C737.81148255 148.98061326 740.49465476 151.45615272 743.1796875 153.9296875 C748.9930008 159.28712449 754.78768536 164.66356956 760.5625 170.0625 C770.62457363 179.46695534 780.80091766 188.74453355 791 198 C793.85452822 196.69645797 795.98134532 195.29052944 798.25 193.12890625 C798.85215332 192.56026855 799.45430664 191.99163086 800.07470703 191.40576172 C800.71005371 190.79748535 801.34540039 190.18920898 802 189.5625 C803.35113306 188.28470201 804.70270058 187.00736327 806.0546875 185.73046875 C806.72338867 185.0967334 807.39208984 184.46299805 808.08105469 183.81005859 C810.73779901 181.30406592 813.42830059 178.83798546 816.125 176.375 C824.98107534 168.27565206 833.79558087 160.1332698 842.5625 151.9375 C848.02748136 146.82891534 853.52199152 141.75499303 859.04296875 136.70703125 C862.18333159 133.83509341 865.31138814 130.94993466 868.4375 128.0625 C868.97777832 127.56347168 869.51805664 127.06444336 870.07470703 126.55029297 C871.16948306 125.53895328 872.2642095 124.52755992 873.35888672 123.51611328 C875.53090442 121.50953341 877.70376073 119.50386308 879.87670898 117.49829102 C880.96093108 116.49755842 882.04507794 115.49674431 883.12915039 114.49584961 C885.81148255 112.01938674 888.49465476 109.54384728 891.1796875 107.0703125 C896.99300041 101.71287587 902.78773321 96.33648126 908.5625 90.9375 C914.02745856 85.82889126 919.52199183 80.75499275 925.04296875 75.70703125 C928.18333159 72.83509341 931.31138814 69.94993466 934.4375 67.0625 C934.97777832 66.56347168 935.51805664 66.06444336 936.07470703 65.55029297 C937.16948306 64.53895328 938.2642095 63.52755992 939.35888672 62.51611328 C942.07177586 60.00985896 944.78594859 57.50499554 947.5 55 C948.58333957 54.00000676 949.66667291 53.00000676 950.75 52 C957.25 46 957.25 46 958.87451172 44.50048828 C959.95952256 43.49891474 961.04448338 42.497287 962.12939453 41.49560547 C964.81165757 39.01923728 967.49473934 36.54376936 970.1796875 34.0703125 C976.56761031 28.1833265 982.9345517 22.27479782 989.27294922 16.33447266 C990.4381623 15.24420134 991.61788682 14.16925746 992.81073213 13.10928899 C995.10173102 10.99012408 995.10173102 10.99012408 997.19440818 8.27747697 C1002.43288249 2.37131093 1006.61888806 -0.56833477 1014.60973509 -1.24247791 C1019.86111479 -1.44509911 1025.09460746 -1.40120363 1030.34820557 -1.32279968 C1032.73858607 -1.32759992 1035.12896091 -1.3372376 1037.51930499 -1.35128051 C1042.70538372 -1.37071325 1047.89020589 -1.35617702 1053.07607841 -1.31126022 C1060.78698279 -1.24465956 1068.49701512 -1.24158562 1076.2081547 -1.2512221 C1089.18130507 -1.26565026 1102.15383756 -1.22901517 1115.12680817 -1.16303062 C1127.96708488 -1.09788876 1140.80710411 -1.05559439 1153.64754486 -1.04364967 C1154.44664208 -1.04289354 1155.24573929 -1.0421374 1156.06905158 -1.04135835 C1160.12744976 -1.03763656 1164.18584816 -1.03432139 1168.24424681 -1.03116272 C1196.97176275 -1.00807308 1225.69894276 -0.93400417 1254.42626953 -0.82983398 C1282.33022274 -0.72876645 1310.23408395 -0.65086587 1338.13818359 -0.60424805 C1339.42892151 -0.60207787 1339.42892151 -0.60207787 1340.74573495 -0.59986384 C1349.38734059 -0.58535982 1358.02894694 -0.57132591 1366.6705539 -0.55763639 C1384.27368065 -0.52973987 1401.87680141 -0.49870609 1419.47991943 -0.46577454 C1420.69389888 -0.46350925 1420.69389888 -0.46350925 1421.93240316 -0.4611982 C1475.95507647 -0.36003241 1529.97755855 -0.18551088 1584 0 C1583.05585499 1.12141237 1582.10884443 2.24041255 1581.16064453 3.35839844 C1580.63358917 3.98180115 1580.10653381 4.60520386 1579.56350708 5.24749756 C1577.52742763 7.52969651 1575.28804436 9.3756475 1572.875 11.25 C1568.76185671 14.52713856 1564.8419124 17.91587556 1561 21.5 C1556.41299756 25.76979255 1551.66551742 29.75762966 1546.78125 33.6875 C1543.75980812 36.1997101 1540.87558227 38.82400827 1538 41.5 C1533.41239887 45.76918152 1528.66557272 49.75758517 1523.78125 53.6875 C1520.75980812 56.1997101 1517.87558227 58.82400827 1515 61.5 C1510.41239887 65.76918152 1505.66557272 69.75758517 1500.78125 73.6875 C1497.75980812 76.1997101 1494.87558227 78.82400827 1492 81.5 C1487.41239887 85.76918152 1482.66557272 89.75758517 1477.78125 93.6875 C1474.75980812 96.1997101 1471.87558227 98.82400827 1469 101.5 C1464.41239887 105.76918152 1459.66557272 109.75758517 1454.78125 113.6875 C1451.22814914 116.64176364 1447.8597632 119.76913424 1444.47827148 122.91625977 C1441.2670095 125.88715628 1437.97372185 128.69961077 1434.5625 131.4375 C1430.37762693 134.80346265 1426.41685602 138.33176017 1422.5 142 C1417.73908666 146.45872195 1412.83532437 150.63797624 1407.74609375 154.72265625 C1404.73680948 157.21826469 1401.86061346 159.83765143 1399 162.5 C1394.41242561 166.76920779 1389.66556996 170.75758739 1384.78125 174.6875 C1381.75980812 177.1997101 1378.87558227 179.82400827 1376 182.5 C1371.41239887 186.76918152 1366.66557272 190.75758517 1361.78125 194.6875 C1358.75980812 197.1997101 1355.87558227 199.82400827 1353 202.5 C1348.41239887 206.76918152 1343.66557272 210.75758517 1338.78125 214.6875 C1335.75980812 217.1997101 1332.87558227 219.82400827 1330 222.5 C1325.41239887 226.76918152 1320.66557272 230.75758517 1315.78125 234.6875 C1312.75980812 237.1997101 1309.87558227 239.82400827 1307 242.5 C1302.41239887 246.76918152 1297.66557272 250.75758517 1292.78125 254.6875 C1289.22814914 257.64176364 1285.8597632 260.76913424 1282.47827148 263.91625977 C1279.2670095 266.88715628 1275.97372185 269.69961077 1272.5625 272.4375 C1268.37762693 275.80346265 1264.41685602 279.33176017 1260.5 283 C1255.73908666 287.45872195 1250.83532437 291.63797624 1245.74609375 295.72265625 C1242.73679731 298.21827478 1239.86079924 300.83784189 1237 303.5 C1232.46802592 307.71230028 1227.79365397 311.68098551 1222.97265625 315.55859375 C1220.11560958 317.90505127 1217.32833129 320.31303669 1214.54907227 322.75024414 C1207.81910696 328.65187975 1200.98131031 334.30288101 1193.80224609 339.65283203 C1191.86618552 341.10002551 1189.94326085 342.56380584 1188.01953125 344.02734375 C1167.30835689 359.65556443 1145.50604125 374.09244146 1123 387 C1122.07010254 387.53753906 1121.14020508 388.07507812 1120.18212891 388.62890625 C1085.41180067 408.67049377 1048.96084459 425.98532485 1010.9375 438.9375 C1010.3121637 439.15099091 1009.68682739 439.36448181 1009.0425415 439.58444214 C1004.69851014 441.06668079 1000.34970654 442.53449004 996 444 C995.04206543 444.32645508 994.08413086 444.65291016 993.09716797 444.98925781 C975.34947028 451.01379626 957.19399247 455.55078912 939 460 C937.91541504 460.26586914 936.83083008 460.53173828 935.71337891 460.80566406 C909.91888829 467.02401737 883.35953386 470.26436955 857 473 C856.06236816 473.09909668 855.12473633 473.19819336 854.15869141 473.30029297 C851.46067826 473.58291473 848.7619451 473.85642499 846.0625 474.125 C845.31967773 474.20065186 844.57685547 474.27630371 843.81152344 474.35424805 C826.78135016 475.97068985 809.71942593 476.2034853 792.625 476.1875 C791.52505707 476.18722809 790.42511414 476.18695618 789.2918396 476.18667603 C773.24020085 476.16848101 757.328149 475.82435934 741.33740234 474.31201172 C737.80636306 473.981897 734.27326571 473.69473068 730.73828125 473.41015625 C700.49814886 470.86178654 670.64216561 466.19783712 641.20947266 458.79638672 C638.24389709 458.06051973 635.27320078 457.36507437 632.29296875 456.69140625 C619.32225459 453.75250546 606.66721718 450.04156159 594 446 C592.98260742 445.6807959 591.96521484 445.3615918 590.91699219 445.03271484 C561.78211033 435.85961675 533.48405357 424.30912471 506 411 C504.8651416 410.45375977 503.7302832 409.90751953 502.56103516 409.34472656 C485.91328281 401.29743307 469.80968725 392.58561683 454 383 C452.62956543 382.17435547 452.62956543 382.17435547 451.23144531 381.33203125 C423.41321907 364.53536829 396.79733674 345.74012651 372.08984375 324.62109375 C369.22422306 322.17696666 366.30594478 319.80304266 363.375 317.4375 C358.67001048 313.61213895 354.20631017 309.57077348 349.74609375 305.46484375 C347.08124834 303.07292703 344.35168175 300.80745116 341.5625 298.5625 C337.02683557 294.90428985 332.7429883 291.05257035 328.48071289 287.08618164 C325.24806025 284.09573 321.93303234 281.26220993 318.5 278.5 C313.98222187 274.86500611 309.72181484 271.0328971 305.48046875 267.0859375 C302.24788253 264.09558642 298.93294134 261.26213671 295.5 258.5 C290.98141824 254.8643595 286.72016671 251.03163598 282.47827148 247.08374023 C279.2670095 244.11284372 275.97372185 241.30038923 272.5625 238.5625 C267.78458662 234.71954521 263.31005016 230.63168671 258.83837891 226.44384766 C254.62570895 222.52093146 250.23586445 218.88088976 245.74609375 215.27734375 C242.73680948 212.78173531 239.86061346 210.16234857 237 207.5 C233.26672745 204.02580757 229.47628889 200.6993129 225.5 197.5 C220.98222187 193.86500611 216.72181484 190.0328971 212.48046875 186.0859375 C209.24788253 183.09558642 205.93294134 180.26213671 202.5 177.5 C197.98222187 173.86500611 193.72181484 170.0328971 189.48046875 166.0859375 C186.24788253 163.09558642 182.93294134 160.26213671 179.5 157.5 C174.98222187 153.86500611 170.72181484 150.0328971 166.48046875 146.0859375 C163.24788253 143.09558642 159.93294134 140.26213671 156.5 137.5 C151.98222187 133.86500611 147.72181484 130.0328971 143.48046875 126.0859375 C140.24788253 123.09558642 136.93294134 120.26213671 133.5 117.5 C128.98222187 113.86500611 124.72181484 110.0328971 120.48046875 106.0859375 C117.24788253 103.09558642 113.93294134 100.26213671 110.5 97.5 C105.98141824 93.8643595 101.72016671 90.03163598 97.47827148 86.08374023 C94.2670095 83.11284372 90.97372185 80.30038923 87.5625 77.5625 C82.78458662 73.71954521 78.31005016 69.63168671 73.83837891 65.44384766 C69.62570895 61.52093146 65.23586445 57.88088976 60.74609375 54.27734375 C57.73680948 51.78173531 54.86061346 49.16234857 52 46.5 C48.26672745 43.02580757 44.47628889 39.6993129 40.5 36.5 C35.98222187 32.86500611 31.72181484 29.0328971 27.48046875 25.0859375 C24.24788253 22.09558642 20.93294134 19.26213671 17.5 16.5 C13.31286478 13.1258414 9.28126484 9.62549489 5.3125 6 C4.78269531 5.51853516 4.25289062 5.03707031 3.70703125 4.54101562 C2.45041719 3.3829923 1.22210848 2.19438176 0 1 C0 0.67 0 0.34 0 0 Z " fill="#FEF3F2" transform="translate(828,1959)"/>
<path d="M0 0 C75.4433957 -0.17142016 150.88681488 -0.33041154 226.33035278 -0.4234314 C227.44719936 -0.42481197 228.56404595 -0.42619254 229.71473636 -0.42761494 C253.98767073 -0.45754504 278.26060716 -0.48524671 302.53354668 -0.51065329 C314.43724121 -0.5231265 326.34093519 -0.53609206 338.24462891 -0.54931641 C339.42918034 -0.550624 340.61373178 -0.55193159 341.83417871 -0.5532788 C380.21887822 -0.59588123 418.60343039 -0.670986 456.98804066 -0.76297221 C496.43801526 -0.85733963 535.88790833 -0.91886404 575.33799389 -0.9391499 C580.91189487 -0.94203139 586.48579557 -0.94528775 592.0596962 -0.94877243 C593.15670407 -0.94944666 594.25371193 -0.95012089 595.38396246 -0.95081555 C613.03247812 -0.96262607 630.68074146 -1.00898846 648.32915428 -1.06832034 C666.07808446 -1.12725103 683.82676488 -1.14966533 701.57578944 -1.13501377 C712.11695626 -1.1274163 722.65720791 -1.14760822 733.19820922 -1.20797543 C740.24757453 -1.24558255 747.29634326 -1.24656211 754.34575038 -1.21831814 C758.35779531 -1.20327571 762.36811474 -1.20362616 766.37997173 -1.24883182 C782.74392247 -1.42262154 796.66722139 -1.32343852 810.31161703 8.77822705 C812.90346685 10.6537802 815.65300025 12.17742562 818.4375 13.75 C819.67306641 14.48476562 819.67306641 14.48476562 820.93359375 15.234375 C828.99863106 19.87819266 837.2431311 24.19966927 845.46557617 28.55615234 C857.0741597 34.70823385 868.59963173 40.9694515 880.00878906 47.48657227 C886.53361852 51.2032253 893.1345246 54.73545888 899.79956055 58.19287109 C907.11940237 62.01225312 914.28126861 66.09487668 921.453125 70.18359375 C927.41327921 73.57004501 933.41508612 76.84370964 939.5 80 C947.59822264 84.20060868 955.52835205 88.66563457 963.453125 93.18359375 C969.41327921 96.57004501 975.41508612 99.84370964 981.5 103 C989.59822264 107.20060868 997.52835205 111.66563457 1005.453125 116.18359375 C1011.41327921 119.57004501 1017.41508612 122.84370964 1023.5 126 C1031.59822264 130.20060868 1039.52835205 134.66563457 1047.453125 139.18359375 C1053.41327921 142.57004501 1059.41508612 145.84370964 1065.5 149 C1073.59822264 153.20060868 1081.52835205 157.66563457 1089.453125 162.18359375 C1095.41327921 165.57004501 1101.41508612 168.84370964 1107.5 172 C1115.59822264 176.20060868 1123.52835205 180.66563457 1131.453125 185.18359375 C1137.41327921 188.57004501 1143.41508612 191.84370964 1149.5 195 C1157.59822264 199.20060868 1165.52835205 203.66563457 1173.453125 208.18359375 C1179.41327921 211.57004501 1185.41508612 214.84370964 1191.5 218 C1199.59822264 222.20060868 1207.52835205 226.66563457 1215.453125 231.18359375 C1221.41327921 234.57004501 1227.41508612 237.84370964 1233.5 241 C1241.59822264 245.20060868 1249.52835205 249.66563457 1257.453125 254.18359375 C1263.41327921 257.57004501 1269.41508612 260.84370964 1275.5 264 C1283.59822264 268.20060868 1291.52835205 272.66563457 1299.453125 277.18359375 C1305.41327921 280.57004501 1311.41508612 283.84370964 1317.5 287 C1325.59822264 291.20060868 1333.52835205 295.66563457 1341.453125 300.18359375 C1347.41327921 303.57004501 1353.41508612 306.84370964 1359.5 310 C1367.59822264 314.20060868 1375.52835205 318.66563457 1383.453125 323.18359375 C1389.41327921 326.57004501 1395.41508612 329.84370964 1401.5 333 C1409.59822264 337.20060868 1417.52835205 341.66563457 1425.453125 346.18359375 C1431.41327921 349.57004501 1437.41508612 352.84370964 1443.5 356 C1451.59822264 360.20060868 1459.52835205 364.66563457 1467.453125 369.18359375 C1473.41327921 372.57004501 1479.41508612 375.84370964 1485.5 379 C1493.59822264 383.20060868 1501.52835205 387.66563457 1509.453125 392.18359375 C1515.41327921 395.57004501 1521.41508612 398.84370964 1527.5 402 C1535.58627347 406.19441056 1543.50519062 410.6519724 1551.41796875 415.16381836 C1558.47208754 419.17221902 1565.59553033 423.0206763 1572.79882812 426.75390625 C1577.26344087 429.06859296 1581.64997383 431.47584008 1586 434 C1586 434.33 1586 434.66 1586 435 C1510.64132889 435.22289982 1435.282618 435.42958122 1359.92370605 435.55046082 C1358.80768782 435.55225556 1357.69166958 435.5540503 1356.5418326 435.55589943 C1332.28550757 435.59481071 1308.02917904 435.63082258 1283.7728453 435.66384928 C1271.87688307 435.68006411 1259.98092179 435.69691939 1248.08496094 435.71411133 C1246.90119406 435.7158112 1245.71742718 435.71751106 1244.49778857 435.71926244 C1206.15497299 435.77462203 1167.81240709 435.87224047 1129.46974266 435.99186387 C1090.0550104 436.1146081 1050.64041621 436.19453863 1011.22549605 436.22089487 C1005.65351944 436.22464067 1000.08154329 436.22887394 994.50956726 436.23340416 C993.41296393 436.23428066 992.3163606 436.23515716 991.18652687 436.23606022 C973.5614298 436.25139968 955.93676072 436.31163197 938.31183792 436.38881644 C920.57621065 436.46552172 902.84100603 436.4945413 885.10521883 436.47551791 C874.57839362 436.46565888 864.05311993 436.4917281 853.52657604 436.57036806 C846.47915252 436.6194008 839.43273566 436.62043276 832.3852405 436.58381358 C828.37885656 436.56432984 824.37538865 436.56439946 820.36932737 436.62348137 C801.20083861 436.88980896 786.79782181 434.48388755 770.44361776 423.59675821 C766.74638428 421.18083702 762.88245036 419.09926564 759 417 C757.56150792 416.19969728 756.12389365 415.39781294 754.6875 414.59375 C749.14959927 411.51713848 743.57401457 408.51052667 738 405.5 C730.26017784 401.31972011 722.54673666 397.0984518 714.8671875 392.80859375 C708.60666301 389.31930501 702.30617213 385.90596515 696 382.5 C688.26017784 378.31972011 680.54673666 374.0984518 672.8671875 369.80859375 C666.60666301 366.31930501 660.30617213 362.90596515 654 359.5 C646.26017784 355.31972011 638.54673666 351.0984518 630.8671875 346.80859375 C624.60666301 343.31930501 618.30617213 339.90596515 612 336.5 C604.26017784 332.31972011 596.54673666 328.0984518 588.8671875 323.80859375 C582.60666301 320.31930501 576.30617213 316.90596515 570 313.5 C562.26017784 309.31972011 554.54673666 305.0984518 546.8671875 300.80859375 C540.60666301 297.31930501 534.30617213 293.90596515 528 290.5 C520.26017784 286.31972011 512.54673666 282.0984518 504.8671875 277.80859375 C498.60666301 274.31930501 492.30617213 270.90596515 486 267.5 C478.26017784 263.31972011 470.54673666 259.0984518 462.8671875 254.80859375 C456.60666301 251.31930501 450.30617213 247.90596515 444 244.5 C436.26017784 240.31972011 428.54673666 236.0984518 420.8671875 231.80859375 C414.60666301 228.31930501 408.30617213 224.90596515 402 221.5 C394.26017784 217.31972011 386.54673666 213.0984518 378.8671875 208.80859375 C372.60666301 205.31930501 366.30617213 201.90596515 360 198.5 C352.26017784 194.31972011 344.54673666 190.0984518 336.8671875 185.80859375 C330.60666301 182.31930501 324.30617213 178.90596515 318 175.5 C310.26017784 171.31972011 302.54673666 167.0984518 294.8671875 162.80859375 C288.60666301 159.31930501 282.30617213 155.90596515 276 152.5 C268.26017784 148.31972011 260.54673666 144.0984518 252.8671875 139.80859375 C246.60666301 136.31930501 240.30617213 132.90596515 234 129.5 C226.26017784 125.31972011 218.54673666 121.0984518 210.8671875 116.80859375 C204.60666301 113.31930501 198.30617213 109.90596515 192 106.5 C184.26017784 102.31972011 176.54673666 98.0984518 168.8671875 93.80859375 C162.60666301 90.31930501 156.30617213 86.90596515 150 83.5 C142.26017784 79.31972011 134.54673666 75.0984518 126.8671875 70.80859375 C120.60666301 67.31930501 114.30617213 63.90596515 108 60.5 C100.26017784 56.31972011 92.54673666 52.0984518 84.8671875 47.80859375 C78.60666301 44.31930501 72.30617213 40.90596515 66 37.5 C58.26451179 33.32206088 50.55444394 29.1047819 42.88037109 24.81518555 C36.49419818 21.25413594 30.06063627 17.78316081 23.625 14.3125 C4.67934325 4.0785153 4.67934325 4.0785153 0 1 C0 0.67 0 0.34 0 0 Z " fill="#FEF3F2" transform="translate(827,1403)"/>
</svg>
